<?xml version="1.0" encoding="UTF-8" standalone="no"?>
<!-- Created with Inkscape (http://www.inkscape.org/) -->

<svg
   xmlns:dc="http://purl.org/dc/elements/1.1/"
   xmlns:cc="http://creativecommons.org/ns#"
   xmlns:rdf="http://www.w3.org/1999/02/22-rdf-syntax-ns#"
   xmlns:svg="http://www.w3.org/2000/svg"
   xmlns="http://www.w3.org/2000/svg"
   xmlns:sodipodi="http://sodipodi.sourceforge.net/DTD/sodipodi-0.dtd"
   xmlns:inkscape="http://www.inkscape.org/namespaces/inkscape"
   version="1.1"
   width="24"
   height="24"
   id="svg4460"
   inkscape:version="0.91 r13725"
   sodipodi:docname="edit.svg">
  <sodipodi:namedview
     pagecolor="#ffffff"
     bordercolor="#666666"
     borderopacity="1"
     objecttolerance="10"
     gridtolerance="10"
     guidetolerance="10"
     inkscape:pageopacity="0"
     inkscape:pageshadow="2"
     inkscape:window-width="1920"
     inkscape:window-height="1017"
     id="namedview11"
     showgrid="false"
     inkscape:zoom="11.313709"
     inkscape:cx="9.6806918"
     inkscape:cy="15.415235"
     inkscape:window-x="-8"
     inkscape:window-y="-8"
     inkscape:window-maximized="1"
     inkscape:current-layer="svg4460"
     showguides="false" />
  <defs
     id="defs4462" />
  <metadata
     id="metadata4465">
    <rdf:RDF>
      <cc:Work
         rdf:about="">
        <dc:format>image/svg+xml</dc:format>
        <dc:type
           rdf:resource="http://purl.org/dc/dcmitype/StillImage" />
        <dc:title></dc:title>
      </cc:Work>
    </rdf:RDF>
  </metadata>
  <path
     style="color:#000000;font-style:normal;font-variant:normal;font-weight:normal;font-stretch:normal;font-size:medium;line-height:normal;font-family:sans-serif;text-indent:0;text-align:start;text-decoration:none;text-decoration-line:none;text-decoration-style:solid;text-decoration-color:#000000;letter-spacing:normal;word-spacing:normal;text-transform:none;direction:ltr;block-progression:tb;writing-mode:lr-tb;baseline-shift:baseline;text-anchor:start;white-space:normal;clip-rule:nonzero;display:inline;overflow:visible;visibility:visible;opacity:1;isolation:auto;mix-blend-mode:normal;color-interpolation:sRGB;color-interpolation-filters:linearRGB;solid-color:#000000;solid-opacity:1;fill:#000000;fill-opacity:1;fill-rule:nonzero;stroke:none;stroke-width:0.2;stroke-linecap:butt;stroke-linejoin:miter;stroke-miterlimit:4;stroke-dasharray:none;stroke-dashoffset:0;stroke-opacity:1;color-rendering:auto;image-rendering:auto;shape-rendering:auto;text-rendering:auto;enable-background:accumulate"
     d="M 20.169922 0.73828125 C 19.65996 0.73820255 19.566274 0.79927705 18.5 1.8613281 L 17.587891 2.7714844 L 19.681641 4.8632812 C 20.83247 6.014298 21.782682 6.9570312 21.794922 6.9570312 C 21.807143 6.9570312 22.230929 6.5417793 22.736328 6.0351562 C 23.780592 4.9883746 23.831449 4.9139899 23.832031 4.3984375 C 23.832958 3.8300252 23.797783 3.7830124 22.302734 2.2910156 C 20.788437 0.77981405 20.731059 0.73836805 20.169922 0.73828125 z M 16.869141 3.4804688 C 16.835234 3.4992635 15.187185 5.1431975 13.658203 6.6679688 L 10.4375 6.6679688 L 0.08984375 6.6679688 L 0.08984375 6.7675781 L 0.08984375 8.0429688 C 0.08984375 8.6287355 0.092257845 8.9450245 0.13867188 9.1425781 C 0.16187888 9.2413551 0.20120558 9.3201397 0.26953125 9.3671875 C 0.33785695 9.4142355 0.41469922 9.4199219 0.49023438 9.4199219 C 0.52428228 9.4199219 0.53920875 9.4238413 0.54296875 9.4257812 C 0.54672875 9.4277212 0.5546765 9.430191 0.5703125 9.46875 C 0.6015844 9.545876 0.63316985 9.7454562 0.65234375 10.132812 C 0.69069145 10.907526 0.69335937 12.444505 0.69335938 15.462891 L 0.69335938 21.707031 L 5.0117188 21.707031 L 15.863281 21.707031 L 20.181641 21.707031 L 20.181641 15.462891 C 20.181641 12.444506 20.184236 10.907528 20.222656 10.132812 C 20.241846 9.7454562 20.273417 9.545887 20.304688 9.46875 C 20.320318 9.430181 20.328291 9.4277092 20.332031 9.4257812 C 20.335731 9.4238513 20.350756 9.4199219 20.384766 9.4199219 C 20.460306 9.4199219 20.537142 9.4142315 20.605469 9.3671875 C 20.673799 9.3201395 20.713122 9.241355 20.736328 9.1425781 C 20.782738 8.9450244 20.785156 8.6287358 20.785156 8.0429688 L 20.785156 7.9394531 C 20.976468 7.7294237 21.07922 7.6032497 21.066406 7.5800781 C 21.041521 7.5350502 20.105477 6.5837844 18.986328 5.4667969 C 17.213392 3.6972813 16.939911 3.4412427 16.869141 3.4804688 z M 17.248047 5.1523438 C 17.279469 5.1528671 17.308429 5.1683983 17.355469 5.1992188 C 17.414672 5.238004 17.460938 5.3107794 17.460938 5.3652344 C 17.460938 5.4353284 16.684033 6.2380264 14.632812 8.2890625 C 12.586086 10.335612 11.776791 11.117188 11.707031 11.117188 C 11.564846 11.117187 11.457728 10.936222 11.523438 10.806641 C 11.595469 10.664595 16.980215 5.2742585 17.128906 5.1953125 C 17.183755 5.1661885 17.216625 5.1518204 17.248047 5.1523438 z M 2.0976562 9.4199219 L 10.4375 9.4199219 L 10.900391 9.4199219 L 8.4882812 11.833984 L 8.4882812 13.939453 C 8.4882812 15.09744 8.499715 16.058329 8.515625 16.074219 C 8.5315175 16.090119 9.472934 16.103516 10.607422 16.103516 L 12.669922 16.103516 L 16.890625 11.882812 C 17.890635 10.882764 18.190748 10.574863 18.777344 9.984375 L 18.777344 14.826172 L 18.777344 20.230469 L 10.4375 20.230469 L 2.0976562 20.230469 L 2.0976562 14.826172 L 2.0976562 9.4199219 z M 10.699219 11.486328 L 11.869141 12.65625 C 12.512863 13.299642 13.039062 13.846664 13.039062 13.871094 C 13.039062 13.895526 12.83853 14.115429 12.59375 14.359375 L 12.148438 14.802734 L 11.623047 14.802734 C 11.183729 14.802734 11.094236 14.791685 11.072266 14.734375 C 11.057816 14.696663 11.044922 14.403889 11.044922 14.083984 L 11.044922 13.501953 L 10.417969 13.501953 L 9.7890625 13.501953 L 9.7636719 13.396484 C 9.7491059 13.338123 9.7437331 13.093077 9.7519531 12.853516 L 9.765625 12.417969 L 10.232422 11.953125 L 10.699219 11.486328 z "
     id="path4184" />
</svg>
