<?xml version="1.0" encoding="UTF-8" standalone="no"?>
<!-- Created with Inkscape (http://www.inkscape.org/) -->

<svg
   xmlns:dc="http://purl.org/dc/elements/1.1/"
   xmlns:cc="http://creativecommons.org/ns#"
   xmlns:rdf="http://www.w3.org/1999/02/22-rdf-syntax-ns#"
   xmlns:svg="http://www.w3.org/2000/svg"
   xmlns="http://www.w3.org/2000/svg"
   xmlns:sodipodi="http://sodipodi.sourceforge.net/DTD/sodipodi-0.dtd"
   xmlns:inkscape="http://www.inkscape.org/namespaces/inkscape"
   version="1.1"
   width="24"
   height="24"
   id="svg4460"
   inkscape:version="0.91 r13725"
   sodipodi:docname="jslide.svg">
  <sodipodi:namedview
     pagecolor="#ffffff"
     bordercolor="#666666"
     borderopacity="1"
     objecttolerance="10"
     gridtolerance="10"
     guidetolerance="10"
     inkscape:pageopacity="0"
     inkscape:pageshadow="2"
     inkscape:window-width="1920"
     inkscape:window-height="1017"
     id="namedview11"
     showgrid="false"
     inkscape:zoom="16.000001"
     inkscape:cx="21.631392"
     inkscape:cy="8.303082"
     inkscape:window-x="-8"
     inkscape:window-y="-8"
     inkscape:window-maximized="1"
     inkscape:current-layer="svg4460"
     showguides="false" />
  <defs
     id="defs4462" />
  <metadata
     id="metadata4465">
    <rdf:RDF>
      <cc:Work
         rdf:about="">
        <dc:format>image/svg+xml</dc:format>
        <dc:type
           rdf:resource="http://purl.org/dc/dcmitype/StillImage" />
        <dc:title />
      </cc:Work>
    </rdf:RDF>
  </metadata>
  <path
     style="color:#000000;font-style:normal;font-variant:normal;font-weight:normal;font-stretch:normal;font-size:medium;line-height:normal;font-family:sans-serif;text-indent:0;text-align:start;text-decoration:none;text-decoration-line:none;text-decoration-style:solid;text-decoration-color:#000000;letter-spacing:normal;word-spacing:normal;text-transform:none;direction:ltr;block-progression:tb;writing-mode:lr-tb;baseline-shift:baseline;text-anchor:start;white-space:normal;clip-rule:nonzero;display:inline;overflow:visible;visibility:visible;opacity:1;isolation:auto;mix-blend-mode:normal;color-interpolation:sRGB;color-interpolation-filters:linearRGB;solid-color:#000000;solid-opacity:1;fill:#000000;fill-opacity:1;fill-rule:nonzero;stroke:none;stroke-width:0.5;stroke-linecap:square;stroke-linejoin:miter;stroke-miterlimit:4;stroke-dasharray:none;stroke-dashoffset:0;stroke-opacity:1;color-rendering:auto;image-rendering:auto;shape-rendering:auto;text-rendering:auto;enable-background:accumulate"
     d="M 10.611328 0.54492188 L 10.611328 1.2402344 L 10.611328 1.9335938 L 12 1.9335938 L 13.388672 1.9335938 L 13.388672 1.2402344 L 13.388672 0.54492188 L 12 0.54492188 L 10.611328 0.54492188 z M 0.18945312 2.6289062 L 0.18945312 4.0175781 C 0.18945312 5.2912074 0.21871632 5.4082031 0.53710938 5.4082031 C 0.87845017 5.4082031 0.88476562 5.5229825 0.88476562 12.09375 L 0.91601562 19.40625 L 5.7792969 19.40625 L 10.347656 19.40625 L 6.8496094 22.90625 C 6.7031645 23.052603 6.6191344 23.248074 6.6152344 23.455078 L 8.5605469 23.455078 L 12.029297 19.986328 L 15.5 23.455078 L 17.447266 23.455078 C 17.443366 23.248073 17.359336 23.052603 17.212891 22.90625 L 13.714844 19.40625 L 18.283203 19.40625 L 23.146484 19.40625 L 23.115234 12.09375 C 23.087154 5.523042 23.121834 5.4082031 23.462891 5.4082031 C 23.781299 5.4082031 23.810547 5.2912076 23.810547 4.0175781 L 23.810547 2.6289062 L 12 2.6289062 L 0.18945312 2.6289062 z M 2.2734375 5.4082031 L 12 5.4082031 L 21.726562 5.4082031 L 21.726562 11.400391 L 21.757812 18.015625 L 12.03125 18.015625 L 2.3046875 18.015625 L 2.2734375 11.400391 L 2.2734375 5.4082031 z M 9.0449219 6.9453125 L 9.0449219 14.550781 L 6.4277344 13.888672 L 6.4277344 15.859375 L 11.03125 17.054688 L 11.041016 6.9453125 L 9.0449219 6.9453125 z M 12.751953 6.9511719 L 12.826172 13.230469 L 15.232422 12.933594 L 15.046875 14.474609 L 12.800781 15.117188 L 12.804688 15.304688 L 12.828125 17.048828 L 16.75 16.005859 L 17.244141 10.742188 L 14.75 11.039062 L 14.712891 8.890625 L 17.394531 8.7832031 L 17.572266 6.9511719 L 12.751953 6.9511719 z "
     id="path4147" />
</svg>
