<?xml version="1.0" encoding="UTF-8" standalone="no"?>
<!-- Created with Inkscape (http://www.inkscape.org/) -->

<svg
   xmlns:dc="http://purl.org/dc/elements/1.1/"
   xmlns:cc="http://creativecommons.org/ns#"
   xmlns:rdf="http://www.w3.org/1999/02/22-rdf-syntax-ns#"
   xmlns:svg="http://www.w3.org/2000/svg"
   xmlns="http://www.w3.org/2000/svg"
   xmlns:sodipodi="http://sodipodi.sourceforge.net/DTD/sodipodi-0.dtd"
   xmlns:inkscape="http://www.inkscape.org/namespaces/inkscape"
   version="1.1"
   width="24"
   height="24"
   id="svg4460"
   inkscape:version="0.91 r13725"
   sodipodi:docname="play.svg">
  <sodipodi:namedview
     pagecolor="#ffffff"
     bordercolor="#666666"
     borderopacity="1"
     objecttolerance="10"
     gridtolerance="10"
     guidetolerance="10"
     inkscape:pageopacity="0"
     inkscape:pageshadow="2"
     inkscape:window-width="1920"
     inkscape:window-height="1017"
     id="namedview11"
     showgrid="false"
     inkscape:zoom="22.627418"
     inkscape:cx="4.6053074"
     inkscape:cy="13.574476"
     inkscape:window-x="-8"
     inkscape:window-y="-8"
     inkscape:window-maximized="1"
     inkscape:current-layer="svg4460"
     showguides="false" />
  <defs
     id="defs4462" />
  <metadata
     id="metadata4465">
    <rdf:RDF>
      <cc:Work
         rdf:about="">
        <dc:format>image/svg+xml</dc:format>
        <dc:type
           rdf:resource="http://purl.org/dc/dcmitype/StillImage" />
        <dc:title />
      </cc:Work>
    </rdf:RDF>
  </metadata>
  <path
     style="fill:#000000"
     d="M 10.611328 0.54492188 L 10.611328 1.2402344 L 10.611328 1.9335938 L 12 1.9335938 L 13.388672 1.9335938 L 13.388672 1.2402344 L 13.388672 0.54492188 L 12 0.54492188 L 10.611328 0.54492188 z M 0.18945312 2.6289062 L 0.18945312 4.0175781 C 0.18945312 5.2912074 0.21871612 5.4082031 0.53710938 5.4082031 C 0.87845017 5.4082031 0.88476562 5.5229825 0.88476562 12.09375 L 0.91601562 19.40625 L 5.7792969 19.40625 L 10.347656 19.40625 L 6.8496094 22.90625 C 6.7031645 23.052603 6.6191344 23.248074 6.6152344 23.455078 L 8.5605469 23.455078 L 12.029297 19.986328 L 15.5 23.455078 L 17.447266 23.455078 C 17.443366 23.248073 17.359336 23.052603 17.212891 22.90625 L 13.714844 19.40625 L 18.283203 19.40625 L 23.146484 19.40625 L 23.115234 12.09375 C 23.087154 5.523042 23.121834 5.4082031 23.462891 5.4082031 C 23.781299 5.4082031 23.810547 5.2912076 23.810547 4.0175781 L 23.810547 2.6289062 L 12 2.6289062 L 0.18945312 2.6289062 z M 2.2734375 5.4082031 L 12 5.4082031 L 21.726562 5.4082031 L 21.726562 11.400391 L 21.757812 18.015625 L 12.03125 18.015625 L 2.3046875 18.015625 L 2.2734375 11.400391 L 2.2734375 5.4082031 z M 16.34375 5.7167969 L 16.335938 7.3378906 C 15.137031 7.4428298 13.83768 7.1565425 12.742188 7.7949219 C 11.386235 8.5927358 10.75401 10.125314 10.150391 11.501953 C 9.2338752 13.429966 8.2329587 14.075594 5.9375 14.089844 L 5.9414062 15.916016 C 9.3494138 16.09962 10.929246 14.813857 12.238281 11.501953 C 12.63268 10.677164 13.026859 9.6523893 13.972656 9.3359375 C 14.752422 9.2350985 15.552876 9.2720031 16.337891 9.2988281 L 16.365234 11.003906 L 19.216797 8.2089844 L 16.34375 5.7167969 z M 5.9511719 7.4140625 L 5.9335938 9.2167969 C 7.4915829 9.2383898 9.1710006 9.5500376 9.8085938 11.013672 C 10.153696 10.368952 10.435899 9.673951 10.828125 9.046875 C 9.8561291 7.6545172 7.778965 7.4086625 5.9511719 7.4140625 z M 12.443359 12.316406 C 12.149594 12.952316 11.806877 13.653581 11.421875 14.285156 C 12.580818 15.903392 14.325201 15.942899 16.361328 16.011719 L 16.380859 17.703125 L 19.064453 15 L 16.376953 12.398438 L 16.357422 14.019531 C 14.579111 13.963217 13.548436 14.021374 12.443359 12.316406 z "
     id="path4135" />
</svg>
