<?xml version="1.0" encoding="UTF-8" standalone="no"?>
<!-- Created with Inkscape (http://www.inkscape.org/) -->

<svg
   xmlns:dc="http://purl.org/dc/elements/1.1/"
   xmlns:cc="http://creativecommons.org/ns#"
   xmlns:rdf="http://www.w3.org/1999/02/22-rdf-syntax-ns#"
   xmlns:svg="http://www.w3.org/2000/svg"
   xmlns="http://www.w3.org/2000/svg"
   xmlns:sodipodi="http://sodipodi.sourceforge.net/DTD/sodipodi-0.dtd"
   xmlns:inkscape="http://www.inkscape.org/namespaces/inkscape"
   version="1.1"
   width="100"
   height="24"
   id="svg4460"
   inkscape:version="0.91 r13725"
   sodipodi:docname="separator.svg">
  <sodipodi:namedview
     pagecolor="#ffffff"
     bordercolor="#666666"
     borderopacity="1"
     objecttolerance="10"
     gridtolerance="10"
     guidetolerance="10"
     inkscape:pageopacity="0"
     inkscape:pageshadow="2"
     inkscape:window-width="1280"
     inkscape:window-height="972"
     id="namedview11"
     showgrid="false"
     inkscape:zoom="5.6568545"
     inkscape:cx="46.95134"
     inkscape:cy="9.0386705"
     inkscape:window-x="-8"
     inkscape:window-y="-8"
     inkscape:window-maximized="1"
     inkscape:current-layer="svg4460"
     showguides="false" />
  <defs
     id="defs4462" />
  <metadata
     id="metadata4465">
    <rdf:RDF>
      <cc:Work
         rdf:about="">
        <dc:format>image/svg+xml</dc:format>
        <dc:type
           rdf:resource="http://purl.org/dc/dcmitype/StillImage" />
        <dc:title></dc:title>
      </cc:Work>
    </rdf:RDF>
  </metadata>
  <path
     style="fill:#000000"
     d="m 38.307411,13.924132 c -0.995738,-0.210962 -2.684505,-0.717358 -4.508568,-1.351937 -1.331995,-0.4634 -2.095134,-0.543558 -2.520633,-0.264758 -0.275908,0.180833 -0.532389,0.70527 -0.427713,0.87465 0.08385,0.135666 0.477796,0.143166 0.81365,0.01583 0.625362,-0.237792 0.623893,0.376791 -0.0015,0.6736 -0.547848,0.26 -1.146528,0.05129 -1.412268,-0.492338 -0.169187,-0.346083 -0.172529,-0.417912 -0.03475,-0.747612 0.181484,-0.43435 0.510852,-0.669329 1.176148,-0.839046 0.2701,-0.06892 0.507705,-0.175125 0.52802,-0.236041 0.04765,-0.143081 -0.859927,-0.533051 -1.541351,-0.662276 -0.315941,-0.05992 -0.693651,-0.06367 -0.935718,-0.0096 -0.481023,0.108084 -1.339903,0.591171 -1.419416,0.798383 -0.03083,0.08029 0.04239,0.349459 0.162755,0.598075 0.302612,0.625104 0.280641,0.965808 -0.08588,1.332338 -0.850093,0.849987 -1.949412,-0.226709 -1.388628,-1.360104 l 0.205771,-0.415917 -0.34258,-0.06425 c -0.475649,-0.08921 -0.881545,0.01667 -2.026685,0.529858 -1.662533,0.744742 -2.641478,1.021704 -3.648335,1.032179 -1.027086,0.01083 -1.429169,-0.150708 -1.799305,-0.72215 -0.173379,-0.267666 -0.307854,-0.360583 -0.523336,-0.361499 -0.378483,-0.0017 -0.952951,0.242374 -1.343,0.570599 -0.385225,0.324125 -0.540148,0.328625 -0.782963,0.0225 -0.1045,-0.131708 -0.260346,-0.284125 -0.346346,-0.338791 -0.09369,-0.05958 -3.352395,-0.120209 -8.130568,-0.151417 C 1.086419,12.309258 8.5512264e-7,12.281674 8.5512264e-7,12.150549 8.5512264e-7,12.063966 0.2015925,11.929591 0.46907112,11.837841 0.87500146,11.698549 1.9593245,11.676716 8.5240469,11.675591 l 7.5859131,-0.0013 0.360933,-0.394 c 0.322134,-0.351625 0.386279,-0.380875 0.596782,-0.271958 0.129713,0.06712 0.308534,0.185125 0.397379,0.262208 0.08884,0.07713 0.37028,0.214458 0.625432,0.305208 l 0.46389,0.165167 0.416957,-0.477104 c 0.720081,-0.823958 1.318726,-1.091296 1.622943,-0.724737 0.187971,0.2265 0.02046,0.466995 -0.431187,0.618962 -0.199979,0.06729 -0.374041,0.203708 -0.39457,0.30925 -0.03246,0.167041 0.01746,0.181333 0.432804,0.1245 0.258225,-0.03542 1.057967,-0.299125 1.777194,-0.586062 2.433706,-0.970938 2.532984,-0.988096 5.853049,-1.011217 1.605261,-0.01125 3.645725,-0.030417 4.534353,-0.043042 2.015107,-0.027917 2.710905,0.120625 4.23532,0.905771 0.609558,0.313958 1.166546,0.548495 1.23775,0.521175 0.0712,-0.0275 0.162292,-0.224667 0.202404,-0.438517 0.04125,-0.219958 0.207596,-0.523483 0.382971,-0.698862 0.278404,-0.2783754 0.359683,-0.304417 0.796799,-0.255167 0.678353,0.076458 1.091599,0.53095 1.046391,1.150825 -0.04658,0.63875 -0.299167,0.624333 -0.5317,-0.03042 -0.156292,-0.440046 -0.227875,-0.523933 -0.447132,-0.523933 -0.143575,0 -0.381424,0.120375 -0.528554,0.267541 -0.508571,0.508575 -0.149029,1.183629 0.892982,1.676579 0.798333,0.377708 1.709683,0.443616 2.256027,0.163208 0.226291,-0.116083 0.496216,-0.356333 0.599783,-0.533808 l 0.188291,-0.322667 -0.519983,0 c -0.454983,0 -0.546939,-0.0375 -0.735564,-0.302749 -0.292792,-0.411167 -0.271167,-0.674134 0.08858,-1.076759 0.266925,-0.298749 0.368175,-0.340374 0.82706,-0.340374 0.430654,0 0.576638,0.05146 0.827513,0.291874 0.324625,0.310959 0.542979,0.879679 0.542979,1.414129 0,0.179667 0.02375,0.326667 0.05371,0.326667 0.02958,0 0.393583,-0.269709 0.808925,-0.599367 1.075537,-0.853579 1.698162,-1.228116 2.472991,-1.487628 0.761154,-0.2548755 1.522983,-0.2467505 2.035029,0.02208 1.078479,0.565783 0.912583,0.544758 1.581941,0.200416 0.818642,-0.4211289 1.232783,-0.4800081 1.997733,-0.2840415 0.842104,0.2157085 1.515696,0.5669455 2.530537,1.3193995 0.460513,0.341458 0.897554,0.620817 0.971196,0.620817 0.082,0 0.16075,-0.202209 0.203125,-0.521729 0.08588,-0.647225 0.539875,-1.213204 1.049975,-1.308904 0.731487,-0.1372501 1.535341,0.584921 1.372658,1.233129 -0.084,0.334666 -0.55005,0.529525 -1.044608,0.436754 -0.330959,-0.06208 -0.378,-0.04525 -0.378,0.135125 0,0.113291 0.09792,0.3305 0.217666,0.48275 0.551613,0.701266 1.661454,0.81777 2.738612,0.287458 0.858925,-0.422825 1.156375,-0.747804 1.156375,-1.263316 0,-0.413584 -0.267667,-0.836359 -0.529487,-0.836359 -0.07542,0 -0.241125,0.14075 -0.36825,0.312709 -0.291959,0.394875 -0.713179,0.433958 -0.713179,0.06621 0,-0.362208 0.372208,-0.773696 0.809058,-0.894308 0.30675,-0.084708 0.455375,-0.069917 0.749516,0.07458 0.4035,0.198208 0.590821,0.49767 0.683309,1.092316 0.03333,0.215 0.108958,0.390874 0.167875,0.390874 0.05883,0 0.611312,-0.234332 1.227612,-0.520716 1.994808,-0.926991 3.744103,-1.2160744 6.734324,-1.1129202 2.790628,0.09625 5.448078,0.5683042 7.76574,1.3793912 0.652,0.228167 1.378962,0.404791 1.798104,0.436883 0.658562,0.05046 0.703608,0.04042 0.703608,-0.161083 0,-0.118208 -0.129,-0.316708 -0.286667,-0.441087 -0.247791,-0.195542 -0.367833,-0.217 -0.886029,-0.158792 -0.495487,0.05575 -0.599362,0.04042 -0.599362,-0.0905 0,-0.223916 0.33275,-0.373708 0.8304,-0.373708 0.628654,0 1.098429,0.239083 1.417658,0.721466 0.239458,0.361791 0.335333,0.425129 0.643391,0.425129 0.247875,0 0.491096,-0.102208 0.771208,-0.324041 0.443121,-0.350917 0.488063,-0.35225 1.549246,-0.04537 0.940583,0.271999 5.581482,0.393208 11.049231,0.288624 2.608558,-0.04996 4.804008,-0.06967 4.878766,-0.04383 0.07746,0.02667 0.122287,0.164625 0.10425,0.320375 l -0.03167,0.273333 -7.192428,-0.03083 c -4.085615,-0.01792 -7.514177,0.01125 -7.937315,0.067 -0.513062,0.06742 -0.869337,0.182416 -1.144758,0.369625 -0.514787,0.349791 -0.782871,0.342291 -1.46202,-0.04125 -0.687938,-0.38825 -0.877838,-0.390333 -1.309358,-0.01417 -0.615342,0.536013 -1.005284,0.676088 -2.010204,0.722108 -1.179383,0.05404 -1.929242,-0.128625 -3.346016,-0.814983 -1.000667,-0.484766 -1.903471,-0.782812 -1.930458,-0.637316 -0.0071,0.03708 -0.0028,0.332291 0.0087,0.656479 0.02542,0.687845 -0.09567,0.964374 -0.515675,1.181587 -0.41,0.212 -0.651792,0.198208 -0.974412,-0.0555 -0.51415,-0.404417 -0.457305,-1.368812 0.102291,-1.735466 0.336375,-0.220375 0.305292,-0.459246 -0.09492,-0.729138 -0.831005,-0.560458 -2.023033,-0.560154 -3.120825,8.55e-4 -0.7627,0.389708 -0.888625,0.592037 -0.368542,0.592037 0.200375,0 0.514113,0.105041 0.712292,0.238416 0.99075,0.666938 0.657754,1.84865 -0.519829,1.844742 -0.575375,-0.0019 -0.798112,-0.117917 -0.702892,-0.366084 0.0535,-0.139416 0.149292,-0.167208 0.423175,-0.122791 0.665334,0.107958 0.989808,-0.464775 0.526034,-0.928542 -0.243125,-0.243125 -0.333334,-0.268791 -0.762192,-0.216333 -0.2675,0.0325 -1.213446,0.3255 -2.102079,0.650658 -2.617703,0.957804 -4.213645,1.297325 -6.098353,1.297325 -0.830175,0 -1.1045,-0.0475 -1.840212,-0.318792 -1.051821,-0.387848 -1.235346,-0.497348 -2.981537,-1.779406 -2.010816,-1.476341 -2.985787,-1.862974 -3.920216,-1.554587 -0.313125,0.103292 -0.697717,0.485059 -0.569242,0.564984 0.635892,0.395624 1.007654,0.681137 1.626963,1.249474 0.529054,0.485517 0.835287,0.691729 1.027249,0.691729 0.261,0 0.270417,-0.01917 0.206292,-0.42 -0.05725,-0.358083 -0.02958,-0.457933 0.190417,-0.67755 0.299666,-0.299666 0.382875,-0.310833 0.780783,-0.105041 0.345125,0.178416 0.424391,0.344833 0.424391,0.890408 0,0.469004 -0.34575,0.943887 -0.834591,1.146383 -0.445338,0.184417 -1.599908,0.08129 -2.254666,-0.201542 l -0.535421,-0.23125 -0.529554,0.268334 c -0.652917,0.330875 -0.701617,0.330958 -1.44195,0.0036 l -0.598691,-0.264791 -0.600188,0.269333 c -1.584333,0.711 -2.899078,0.266333 -2.899078,-0.980491 0,-0.594154 0.299374,-0.948321 0.801795,-0.948321 0.425433,0 0.605417,0.245083 0.605417,0.824304 0,0.420437 0.02958,0.482821 0.24025,0.512733 0.240333,0.03417 0.49225,-0.190416 1.488241,-1.326341 0.233375,-0.266167 0.499358,-0.451029 0.709325,-0.493046 0.2355,-0.04708 0.318667,-0.11225 0.278083,-0.217875 -0.03208,-0.08287 -0.05783,-0.166583 -0.05783,-0.185916 0,-0.01958 -0.238833,-0.114542 -0.530708,-0.211542 -0.705704,-0.234417 -1.653233,-0.172042 -2.323192,0.152875 -0.279708,0.135667 -1.05367,0.684033 -1.719928,1.218604 -1.324633,1.062812 -2.461392,1.718304 -3.407077,1.964616 -0.798287,0.207917 -2.068331,0.190583 -3.17257,-0.04346 z m 2.796749,-0.415083 c 0.844446,-0.163208 0.75415,-0.317958 -0.1705,-0.292208 l -0.850541,0.02333 -2.216892,-1.117946 c -2.707498,-1.365121 -3.256692,-1.544025 -4.966686,-1.617713 -1.554422,-0.06696 -1.630958,0.04921 -0.323517,0.491229 0.486374,0.164459 1.547297,0.6045 2.3576,0.977933 3.070228,1.414954 4.697729,1.819879 6.170541,1.535246 z m 20.926238,-0.169208 c 0.593304,-0.154125 2.051733,-0.715559 3.477328,-1.338542 1.350479,-0.59017 2.5375,-1.102462 2.637829,-1.138433 0.100333,-0.03625 0.182375,-0.144041 0.182375,-0.240208 0,-0.155542 -0.112667,-0.168583 -1.020017,-0.118583 -1.529387,0.08425 -3.276716,0.71582 -5.546978,2.004887 -0.544641,0.30925 -1.119699,0.593829 -1.277904,0.632383 -0.575379,0.140208 -0.438737,0.459271 0.198042,0.462379 0.180042,8.46e-4 0.787217,-0.117875 1.349262,-0.263917 z M 27.654575,12.680845 c -0.02179,-0.26025 -0.08795,-0.387417 -0.213979,-0.411333 -0.1485,-0.02792 -0.182413,0.04125 -0.182413,0.372666 0,0.459238 0.0574,0.557638 0.276292,0.473642 0.103025,-0.03917 0.141545,-0.179042 0.120104,-0.434946 z m 45.300837,0.134125 c 0.103209,-0.269 0.07208,-0.773254 -0.04783,-0.773254 -0.309042,0 -0.514337,0.230292 -0.514337,0.576979 0,0.311458 0.03417,0.361167 0.249416,0.361167 0.137209,0 0.277959,-0.07421 0.312709,-0.164917 z m 6.98832,-0.145208 c 0.147042,-0.05596 0.267375,-0.17225 0.267375,-0.258625 0,-0.162292 -0.03125,-0.172625 -1.125058,-0.3685 -0.360792,-0.06467 -1.099817,-0.278125 -1.642258,-0.474475 -1.309208,-0.473925 -2.835429,-0.854083 -3.912675,-0.9746 -0.482458,-0.054 -0.893233,-0.08212 -0.912816,-0.06254 -0.01958,0.01958 -0.0042,0.133417 0.03333,0.253084 0.08633,0.272125 0.567383,0.527904 0.992696,0.527904 0.563962,0 1.781341,0.325041 3.134695,0.836958 0.720963,0.272708 1.401121,0.518871 1.511454,0.547012 0.365292,0.09317 1.381412,0.077 1.653162,-0.02625 z M 23.088657,12.074053 c 1.831102,-0.744362 2.612055,-0.919137 3.511322,-0.78577 0.670951,0.09946 0.739144,0.09008 1.230498,-0.169958 0.286108,-0.151375 0.53581,-0.357375 0.554899,-0.457717 0.03137,-0.164917 -0.07699,-0.182417 -1.12924,-0.182417 -1.421276,0 -2.65894,0.237917 -4.557548,0.876034 -0.759176,0.255166 -1.650414,0.519499 -1.980525,0.587408 -0.655904,0.134958 -0.965027,0.265583 -0.965027,0.407833 0,0.183208 0.589155,0.311208 1.302977,0.283083 0.596408,-0.02333 0.967631,-0.1255 2.032644,-0.558471 z m -5.654215,-0.0067 c 0.04804,-0.146334 -0.372875,-0.338167 -0.574012,-0.261667 -0.07167,0.0275 -0.130291,0.141333 -0.130291,0.253458 0,0.166375 0.06082,0.197917 0.330737,0.171292 0.181917,-0.01833 0.350017,-0.09133 0.373567,-0.163083 z m 65.869214,0.01833 c 0.03458,-0.09046 -0.0087,-0.236167 -0.09633,-0.323917 -0.143083,-0.143083 -0.182292,-0.136583 -0.382875,0.064 -0.122875,0.122875 -0.1955,0.268625 -0.161333,0.323917 0.100208,0.16225 0.571875,0.115083 0.640604,-0.064 z"
     id="path4144"
     inkscape:connector-curvature="0" />
</svg>
