<?xml version="1.0" encoding="UTF-8" standalone="no"?>
<!-- Created with Inkscape (http://www.inkscape.org/) -->

<svg
   xmlns:dc="http://purl.org/dc/elements/1.1/"
   xmlns:cc="http://creativecommons.org/ns#"
   xmlns:rdf="http://www.w3.org/1999/02/22-rdf-syntax-ns#"
   xmlns:svg="http://www.w3.org/2000/svg"
   xmlns="http://www.w3.org/2000/svg"
   xmlns:sodipodi="http://sodipodi.sourceforge.net/DTD/sodipodi-0.dtd"
   xmlns:inkscape="http://www.inkscape.org/namespaces/inkscape"
   width="32.567738mm"
   height="32.515484mm"
   viewBox="0 0 115.3975 115.21234"
   id="svg2"
   version="1.1"
   inkscape:version="0.91 r13725"
   sodipodi:docname="logo.svg"
   inkscape:export-filename="C:\wamp64\www\github\jSlide2\img\logo.png"
   inkscape:export-xdpi="234"
   inkscape:export-ydpi="234">
  <defs
     id="defs4" />
  <sodipodi:namedview
     id="base"
     pagecolor="#ffffff"
     bordercolor="#666666"
     borderopacity="1.0"
     inkscape:pageopacity="0.0"
     inkscape:pageshadow="2"
     inkscape:zoom="2.8"
     inkscape:cx="-120.80251"
     inkscape:cy="61.218599"
     inkscape:document-units="px"
     inkscape:current-layer="layer1"
     showgrid="true"
     inkscape:snap-bbox="true"
     inkscape:window-width="1920"
     inkscape:window-height="1017"
     inkscape:window-x="-8"
     inkscape:window-y="-8"
     inkscape:window-maximized="1"
     fit-margin-top="0"
     fit-margin-left="0"
     fit-margin-right="0"
     fit-margin-bottom="0">
    <inkscape:grid
       type="xygrid"
       id="grid4151"
       originx="-132.30125"
       originy="-913.44606" />
  </sodipodi:namedview>
  <metadata
     id="metadata7">
    <rdf:RDF>
      <cc:Work
         rdf:about="">
        <dc:format>image/svg+xml</dc:format>
        <dc:type
           rdf:resource="http://purl.org/dc/dcmitype/StillImage" />
        <dc:title></dc:title>
      </cc:Work>
    </rdf:RDF>
  </metadata>
  <g
     inkscape:label="Calque 1"
     inkscape:groupmode="layer"
     id="layer1"
     transform="translate(-132.30125,-23.703789)">
    <g
       id="g4159"
       transform="matrix(1.1570802,0,0,1.1570802,121.42542,9.3589163)">
      <rect
         ry="0"
         y="32.614742"
         x="16.010153"
         height="55"
         width="85"
         id="rect4154"
         style="opacity:1;fill:#f16529;fill-opacity:1;stroke:none;stroke-width:8;stroke-linecap:round;stroke-linejoin:miter;stroke-miterlimit:4;stroke-dasharray:none;stroke-dashoffset:0;stroke-opacity:1" />
      <path
         sodipodi:nodetypes="ccccccccccssscccccccccccccsssccccccccc"
         inkscape:connector-curvature="0"
         id="path4241"
         d="m 53.456371,15.573789 0,2.908499 0,2.900327 5.80882,0 5.80882,0 0,-2.900327 0,-2.908499 -5.80882,0 z m -43.5947998,8.717324 0,5.808826 c 0,5.327602 0.12255,5.816996 1.4542598,5.816996 1.42783,0 1.45426,0.480119 1.45426,27.965692 l 0,27.973869 20.34314,0 19.10949,0 -14.63237,14.640534 c -0.6126,0.61219 -0.9641,1.42985 -0.98042,2.29575 l 8.1373,0 14.5098,-14.509809 14.51797,14.509809 8.14545,0 c -0.0168,-0.8659 -0.36769,-1.68356 -0.98042,-2.29575 l -14.63237,-14.640534 19.10949,0 20.343139,0 0,-27.973869 c 0,-27.485575 0.0293,-27.965692 1.45426,-27.965692 1.33192,0 1.45426,-0.489393 1.45426,-5.816996 l 0,-5.808826 -49.403619,0 z m 90.0898998,11.625822 0,25.065366 0,25.057199 -40.68628,0 -40.68628,0 z"
         style="fill:#e44d26;fill-opacity:1" />
      <path
         inkscape:connector-curvature="0"
         id="path4300"
         d="m 46.904071,40.173473 0,31.812047 -10.94773,-2.76696 0,8.244906 19.25656,5.006121 0.0418,-42.296114 -8.34966,0 z m 15.50653,0.07997 0.31038,26.270131 10.06536,-1.247529 -0.77611,6.437579 -9.39545,2.702984 0.0168,0.77571 0.0979,7.293264 16.40526,-4.366367 2.06699,-22.007729 -10.43301,1.239534 -0.15518,-8.980625 11.21732,-0.455829 0.74344,-7.661123 -20.16339,0 z"
         style="color:#000000;font-style:normal;font-variant:normal;font-weight:normal;font-stretch:normal;font-size:medium;line-height:normal;font-family:sans-serif;text-indent:0;text-align:start;text-decoration:none;text-decoration-line:none;text-decoration-style:solid;text-decoration-color:#000000;letter-spacing:normal;word-spacing:normal;text-transform:none;direction:ltr;block-progression:tb;writing-mode:lr-tb;baseline-shift:baseline;text-anchor:start;white-space:normal;clip-rule:nonzero;display:inline;overflow:visible;visibility:visible;opacity:1;isolation:auto;mix-blend-mode:normal;color-interpolation:sRGB;color-interpolation-filters:linearRGB;solid-color:#000000;solid-opacity:1;fill:#ffffff;fill-opacity:1;fill-rule:nonzero;stroke:none;stroke-width:0.5;stroke-linecap:square;stroke-linejoin:miter;stroke-miterlimit:4;stroke-dasharray:none;stroke-dashoffset:0;stroke-opacity:1;color-rendering:auto;image-rendering:auto;shape-rendering:auto;text-rendering:auto;enable-background:accumulate" />
    </g>
  </g>
</svg>
